PathFileType	4	(X/Y/Z)	C:\Users\willi\Documents\UniDataLokal\DATA_Hans_PhD\TD03\3DGAIT_B_W4\marker_experimental.trc
DataRate	CameraRate	NumFrames	NumMarkers	Units	OrigDataRate	OrigDataStartFrame	OrigNumFrames
100.000000	100.000000	3	137	mm	100.000000	183	210
Frame#	Time	LFEO			LFEA			LFEL			LFEP			LFOO			LFOA			LFOL			LFOP			LTIO			LTIA			LTIL			LTIP			LTOO			LTOA			LTOL			LTOP			PELO			PELA			PELL			PELP			RFEO			RFEA			RFEL			RFEP			RFOO			RFOA			RFOL			RFOP			RTIO			RTIA			RTIL			RTIP			RTOO			RTOA			RTOL			RTOP			TRXO			TRXA			TRXL			TRXP			C7			T10			CLAV			STRN			RBAK			LASI			RASI			LPSI			RPSI			LTHI			LKNE			LMKNE			LPAT			LTUB			LTIB			LANK			LMMA			LHEE			LTOE			LD5M			RTHI			RKNE			RMKNE			RPAT			RTUB			RTIB			RANK			RMMA			RHEE			RTOE			RD5M			LTH1			LTH2			LTH3			LTB1			LTB2			LTB3			LTB4			LTB5			RTH1			RTH2			RTH3			RTB1			RTB2			RTB3			RTB4			RTB5			LIC			RIC			CentreOfMass			CentreOfMassFloor			LHipAngles			LKneeAngles			LAnkleAngles			LAbsAnkleAngle			RHipAngles			RKneeAngles			RAnkleAngles			RAbsAnkleAngle			LSpineAngles			RSpineAngles			LThoraxAngles			RThoraxAngles			LPelvisAngles			RPelvisAngles			LFootProgressAngles			RFootProgressAngles			LAnklePower			RAnklePower			LKneePower			RKneePower			LHipPower			RHipPower			LWaistPower			RWaistPower			LGroundReactionForce			RGroundReactionForce			LNormalisedGRF			RNormalisedGRF			LAnkleForce			RAnkleForce			LKneeForce			RKneeForce			LHipForce			RHipForce			LWaistForce			RWaistForce			LGroundReactionMoment			RGroundReactionMoment			LAnkleMoment			RAnkleMoment			LKneeMoment			RKneeMoment			LHipMoment			RHipMoment			LWaistMoment			RWaistMoment			
		X1	Y1	Z1	X2	Y2	Z2	X3	Y3	Z3	X4	Y4	Z4	X5	Y5	Z5	X6	Y6	Z6	X7	Y7	Z7	X8	Y8	Z8	X9	Y9	Z9	X10	Y10	Z10	X11	Y11	Z11	X12	Y12	Z12	X13	Y13	Z13	X14	Y14	Z14	X15	Y15	Z15	X16	Y16	Z16	X17	Y17	Z17	X18	Y18	Z18	X19	Y19	Z19	X20	Y20	Z20	X21	Y21	Z21	X22	Y22	Z22	X23	Y23	Z23	X24	Y24	Z24	X25	Y25	Z25	X26	Y26	Z26	X27	Y27	Z27	X28	Y28	Z28	X29	Y29	Z29	X30	Y30	Z30	X31	Y31	Z31	X32	Y32	Z32	X33	Y33	Z33	X34	Y34	Z34	X35	Y35	Z35	X36	Y36	Z36	X37	Y37	Z37	X38	Y38	Z38	X39	Y39	Z39	X40	Y40	Z40	X41	Y41	Z41	X42	Y42	Z42	X43	Y43	Z43	X44	Y44	Z44	X45	Y45	Z45	X46	Y46	Z46	X47	Y47	Z47	X48	Y48	Z48	X49	Y49	Z49	X50	Y50	Z50	X51	Y51	Z51	X52	Y52	Z52	X53	Y53	Z53	X54	Y54	Z54	X55	Y55	Z55	X56	Y56	Z56	X57	Y57	Z57	X58	Y58	Z58	X59	Y59	Z59	X60	Y60	Z60	X61	Y61	Z61	X62	Y62	Z62	X63	Y63	Z63	X64	Y64	Z64	X65	Y65	Z65	X66	Y66	Z66	X67	Y67	Z67	X68	Y68	Z68	X69	Y69	Z69	X70	Y70	Z70	X71	Y71	Z71	X72	Y72	Z72	X73	Y73	Z73	X74	Y74	Z74	X75	Y75	Z75	X76	Y76	Z76	X77	Y77	Z77	X78	Y78	Z78	X79	Y79	Z79	X80	Y80	Z80	X81	Y81	Z81	X82	Y82	Z82	X83	Y83	Z83	X84	Y84	Z84	X85	Y85	Z85	X86	Y86	Z86	X87	Y87	Z87	X88	Y88	Z88	X89	Y89	Z89	X90	Y90	Z90	X91	Y91	Z91	X92	Y92	Z92	X93	Y93	Z93	X94	Y94	Z94	X95	Y95	Z95	X96	Y96	Z96	X97	Y97	Z97	X98	Y98	Z98	X99	Y99	Z99	X100	Y100	Z100	X101	Y101	Z101	X102	Y102	Z102	X103	Y103	Z103	X104	Y104	Z104	X105	Y105	Z105	X106	Y106	Z106	X107	Y107	Z107	X108	Y108	Z108	X109	Y109	Z109	X110	Y110	Z110	X111	Y111	Z111	X112	Y112	Z112	X113	Y113	Z113	X114	Y114	Z114	X115	Y115	Z115	X116	Y116	Z116	X117	Y117	Z117	X118	Y118	Z118	X119	Y119	Z119	X120	Y120	Z120	X121	Y121	Z121	X122	Y122	Z122	X123	Y123	Z123	X124	Y124	Z124	X125	Y125	Z125	X126	Y126	Z126	X127	Y127	Z127	X128	Y128	Z128	X129	Y129	Z129	X130	Y130	Z130	X131	Y131	Z131	X132	Y132	Z132	X133	Y133	Z133	X134	Y134	Z134	X135	Y135	Z135	X136	Y136	Z136	X137	Y137	Z137	

184	1.83	865.8322143554688	461.3557739257812	244.4862518310547	1175.39599609375	594.5187377929686	347.4176940917969	965.7323608398438	489.4049987792968	-92.24830627441401	730.3803100585938	786.37548828125	231.3747253417969	1116.6865234375	102.0705184936523	201.1930236816407	1075.125122070312	291.6505737304687	195.6722869873047	1110.035522460938	94.96541595458977	7.276275634765693	927.1427001953125	60.75046539306635	209.2079620361329	979.8267822265625	85.53283691406244	219.1465148925782	1315.0654296875	194.8106384277343	106.5291366577149	865.2453002929688	74.49754333496088	-132.6469116210937	872.6101684570312	439.0096740722656	242.9795684814454	1179.86767578125	115.8438644409179	198.5213928222657	1166.013916015625	179.0372161865234	196.681137084961	1177.650756835938	113.4754791259765	133.8824920654298	1116.6865234375	102.070571899414	201.1930236816407	714.7380981445312	786.4799194335938	296.2499084472657	843.888427734375	773.707763671875	327.4102783203126	746.0225830078125	786.2711181640625	166.4996032714844	727.2031860351562	919.3359985351562	299.0415954589844	585.3187255859375	461.0065917968749	348.2188110351563	908.0816650390625	346.5178527832031	390.9868774414063	629.9456176757812	458.9772644042968	5.995239257812538	699.0957641601562	786.5843505859375	361.1250610351563	516.7318725585938	49.05768966674802	384.4444274902344	562.841796875	236.6692504882812	374.6369628906251	548.97509765625	31.2060623168945	194.544189453125	331.6517639160156	92.68833923339842	348.9181213378906	390.4139404296875	91.08747863769528	346.219970703125	708.6046142578125	-77.42593383789067	506.0265502929688	532.6004638671875	18.11705017089841	-13.83352661132809	574.038330078125	439.5968017578124	348.1030883789063	578.42529296875	34.5141448974609	396.2864990234376	593.7952270507812	97.05131530761714	393.0173034667969	589.1729736328125	28.56357383728024	332.9864196777344	516.7318725585938	49.05767440795896	384.4444580078126	725.7538452148439	1257.410522460938	280.7388916015626	nan	nan	nan	nan	nan	nan	nan	nan	nan	618.3825683593751	1323.142333984375	283.5534973144532	597.0651245117189	1020.179992675781	276.8704528808594	730.2251586914064	1257.744506835938	281.1197509765626	784.8387451171876	1095.0712890625	305.2267150878907	598.2854003906251	1230.393920898438	413.7674865722657	787.22021484375	871.1096801757812	201.3085174560547	736.050048828125	871.4512329101562	413.5332641601563	605.6227416992188	882.6130981445312	220.0699920654297	590.5586547851562	892.5861206054688	301.9968261718751	858.5333251953125	567.51611328125	129.0970611572266	883.6937866210938	466.3707885742187	184.2798461914063	848.2765502929688	437.9201965332031	299.7741394042969	918.3310546875	464.2355346679687	249.2906188964844	923.8385620117188	411.8149719238281	237.5201110839844	907.9161987304688	213.5024261474609	129.258285522461	968.0636596679688	84.39992523193354	183.0307922363282	980.3469848632812	90.44689178466791	264.1222229003907	925.6077880859375	23.79455375671381	212.7069244384766	1115.37548828125	72.41529846191399	205.9087524414063	1097.713989257812	53.19858169555658	157.5294494628907	591.6569213867188	520.01318359375	458.3445739746094	576.9138793945312	461.3887634277343	412.6719665527344	596.7091674804688	453.5443420410156	279.3539733886719	641.9375610351562	418.5850219726562	352.9415283203126	601.0821533203125	366.3055114746093	356.9291381835938	420.878173828125	224.3619689941406	426.0982971191406	376.8784790039062	98.03387451171872	380.4951477050781	411.6574096679688	105.4596710205078	303.3474426269531	315.36328125	81.73783874511717	333.919677734375	507.0211486816406	32.6262512207031	373.7751159667969	470.1045837402344	15.68218326568601	414.5105895996094	741.4051513671875	580.7373046875	161.2578735351563	798.7627563476562	556.1732788085938	147.8386383056641	784.188232421875	496.6768188476562	174.6000366210938	940.6842041015625	292.3373718261718	245.4032745361329	960.6295166015625	250.8154144287109	195.866683959961	965.8558959960938	203.0103607177734	242.4200439453126	881.8562622070312	426.7558593749999	174.1666717529297	848.029296875	403.3751220703124	291.0632629394532	577.8313598632812	617.6016845703125	423.7214965820313	617.3423461914062	558.7766723632812	428.2402038574219	562.3505249023438	518.4871215820312	412.3908081054688	553.9893798828125	299.5010070800781	340.5653381347657	514.97998046875	259.4735412597656	391.0935668945313	495.1961669921875	218.9128112792968	337.2281799316407	562.9797973632812	433.0304260253906	408.6060180664063	565.9754638671875	415.6508789062499	281.1215209960938	712.8289184570314	940.7786865234375	143.3879547119141	656.9450073242189	951.7359008789062	428.4710388183594	725.922119140625	821.8330078125	289.4451904296876	725.922119140625	-4.44499099817915e-14	289.4451904296876	3.174330949783327	4.517692089080811	-28.01183128356934	3.878307342529295	-34.91423416137695	-7.210503578186035	3.820950746536255	15.62302589416504	4.896363258361816	-2.887133536320897e-16	0	4.715046882629395	2.260498285293579	5.700929164886475	13.74743938446045	2.885016202926635	-17.19804382324219	-8.234386444091797	2.777417898178102	12.66559886932373	-14.68395233154297	8.767801096235642e-16	0	-14.3189058303833	-2.497485876083374	8.355905532836914	9.706957817077637	2.497485876083373	-8.355905532836914	9.706957817077637	2.137535572052002	4.858563899993896	4.090080738067627	-2.137535572052003	-4.858563899993896	4.090080738067627	-1.198508143424987	13.50421714782715	-5.360037803649902	1.198508143424987	-13.50421714782715	-5.360037803649902	-1.630758285522467	-2.365821599960327	102.2979354858398	2.956451654434199	-10.5825366973877	76.73532867431641	-1.272134459647067e-18	-0.02077553234994411	-7.789576970459145e-35	8.8828261919005e-17	1.4506756067276	5.43916233164661e-33	3.68192661298359e-18	0.06013042479753494	2.254529820642905e-34	9.094441113079981e-18	0.1485234946012497	5.568739099583746e-34	-2.065016924485632e-18	-0.03372428566217422	-1.26445818337822e-34	7.809617790309562e-18	0.1275407373905182	4.782011714733415e-34	-4.897849499096965e-19	-0.007998795248568058	-2.999067855887282e-35	-4.897849499096965e-19	-0.007998795248568058	-2.999067855887282e-35	nan	nan	nan	1.576781392097474	10.01191520690918	-0.6206767559051513	nan	nan	nan	6.32698011398316	102.0582580566406	16.07320404052734	-0.004766465164721025	-0.04213536158204079	0.16507788002491	-0.03158108517527514	0.8364740014076233	-9.965923309326172	-0.03948176652193063	0.7523016929626465	-0.2253575921058655	-0.626290321350098	-8.824830055236816	-3.149809837341309	-0.3815752863883971	1.875117182731628	-0.9596765041351318	0.6813673973083493	-7.945960998535156	-1.919944286346436	0.3777624964714048	-4.27737283706665	-0.1401524990797043	0.3777624964714048	-4.27737283706665	-0.1401524990797043	nan	nan	nan	-1227.983642578125	346.9042663574219	1816.615356445312	-2.529005510230057e-15	-3.806284189224243	10.9719820022583	-187.9754486083984	51.91053771972658	-1315.958129882812	-33.51108169555664	-2.797997951507566	1.588209986686705	-194.2287750244141	108.1568145751953	-59.20587539672853	-99.03737640380861	-4.730076789855951	222.5641784667969	-486.4023437500001	77.86798858642581	712.3364868164062	-283.8269958496094	-80.97092437744139	991.9529418945312	283.8269958496093	80.97092437744139	991.9529418945312	
185	1.84	880.1499633789062	462.5521545410156	245.4286346435547	1190.542846679688	598.0361328124999	341.1857299804688	974.3557739257812	485.8357849121093	-92.87910461425776	743.5828247070312	786.54443359375	229.6983032226563	1121.1904296875	94.01268005371087	201.6064147949219	1087.791137695312	285.2128601074218	196.5670013427735	1113.341186523438	87.53116607666009	7.712631225586006	930.0849609375	60.86305618286127	210.4508514404297	983.831298828125	83.34130096435541	220.1787872314454	1323.951904296875	183.501739501953	112.543670654297	873.800537109375	76.81298065185541	-133.5867462158203	886.3086547851562	440.0270385742187	243.9288024902344	1184.892333984375	105.0625762939452	198.6582641601563	1173.75927734375	168.7959747314452	196.9784545898438	1182.276000976562	102.9020538330077	134.0269927978516	1121.190551757812	94.01273345947259	201.6064147949219	728.0048828125	786.3369140625	294.5886535644532	857.2177124023438	773.75830078125	325.5679626464844	759.1607666015625	786.7518920898438	164.8078918457032	740.1396484375	919.2109375	297.9266967773438	597.7714233398438	460.2835083007812	347.9093627929688	920.5350952148438	345.1183166503906	392.8070068359376	643.955078125	456.1938171386718	5.410400390625039	712.4269409179688	786.1292724609375	359.4790344238282	518.3588256835938	48.15707015991208	385.0199584960938	571.6697998046875	233.8884582519531	375.9540405273438	549.8445434570312	29.84617233276364	195.0363464355469	335.0912475585938	99.03893280029295	349.7432250976562	393.7473449707031	95.1833801269531	347.0155029296875	705.9720458984375	-79.69667053222661	511.9403686523438	538.09130859375	15.39775848388668	-10.84838867187497	585.9661865234375	439.1581420898437	347.8576354980469	579.4480590820312	31.19645690917965	396.7788391113282	597.2183837890625	93.10693359374996	393.7568664550782	589.9432983398438	25.09282302856442	333.4509887695313	518.35888671875	48.15707397460935	385.0199279785157	737.9105224609376	1257.373657226562	278.9590454101563	nan	nan	nan	nan	nan	nan	nan	nan	nan	630.2704467773439	1322.77490234375	281.4720764160157	609.9216308593751	1019.731079101562	275.9361877441407	742.3809814453126	1257.724243164062	279.3350830078126	797.6488037109376	1095.313598632812	303.7377929687501	610.1514282226564	1230.134887695312	411.8436584472657	800.2105102539062	871.5470581054688	199.8063049316407	749.18994140625	870.8673706054688	412.3337707519532	618.6409301757812	882.55712890625	218.9525451660157	603.6082763671875	892.0531005859375	300.8898315429688	870.5795288085938	567.0810546875	128.5556945800782	897.0130004882812	466.7199707031249	184.8706665039063	862.4117431640625	439.2976989746093	300.1250305175782	931.5045776367188	464.6139221191406	249.5068054199219	936.5447387695312	411.2460632324218	238.4558563232422	917.1398315429688	213.1329650878906	130.2162475585938	972.5472412109375	82.6717910766601	183.8989868164063	984.9058227539062	87.6525039672851	265.1351318359376	927.3638305664062	24.35008239746088	213.3843078613282	1119.080932617188	64.36965179443352	206.2368621826172	1100.074462890625	46.39696884155267	157.8141174316407	603.7501220703125	519.8047485351562	457.6042480468751	589.0857543945312	461.0526428222656	412.3218383789063	609.5411376953125	452.3193969726562	279.2586975097657	654.4445190429688	416.8872985839843	353.3911437988282	611.770263671875	365.0477905273437	357.4757690429688	427.0789489746094	228.6825561523437	425.4717712402344	380.0104064941406	102.7764129638672	381.0726623535156	415.2876586914062	109.3251724243164	304.2391662597656	318.4306945800781	88.75258636474608	334.2695617675781	507.4652404785156	32.46133804321286	374.1558532714844	470.0661010742188	15.95734214782712	414.2556152343751	754.3177490234375	580.8997802734375	161.9122772216797	811.4930419921875	556.224609375	148.3423156738282	797.1210327148438	496.9364929199218	175.5786895751954	950.2355346679688	290.7281799316406	246.7203216552735	970.1259765625	248.8219299316406	197.4085540771485	973.1783447265625	200.7865600585937	243.8182830810547	895.1868286132812	426.7925415039062	174.8947448730469	861.0712280273438	404.5200805664062	291.7174987792969	590.6294555664062	617.185546875	422.0979003906251	629.94580078125	558.2557983398438	427.3583984375001	574.9716796875	518.0419921875	411.3482055664063	562.7514038085938	299.3092651367187	341.1534118652344	522.4693603515625	260.6451110839843	391.6838684082032	501.6890258789062	220.4615936279297	337.7854003906251	574.794677734375	432.9108886718749	408.4602050781251	578.181640625	414.9367065429687	281.2281494140626	725.4438476562501	941.003662109375	142.0253601074219	669.7276611328126	950.9848022460938	427.2576599121094	737.274169921875	822.0031127929688	288.6529235839844	737.274169921875	-4.51450226144423e-14	288.6529235839844	2.536519765853884	3.299068689346313	-28.24559783935547	3.920738935470579	-32.96132278442383	-8.989297866821289	3.466136455535889	14.5836238861084	5.789227962493896	-3.430296268792896e-16	0	5.602098941802979	2.740919589996337	5.206577301025391	13.90728664398193	3.022993564605712	-17.70146942138672	-9.507993698120117	3.00104856491089	13.57320404052734	-13.86437129974365	8.247840439219843e-16	0	-13.46974563598633	-2.910201787948608	8.304922103881836	9.79959774017334	2.910201787948608	-8.304922103881836	9.79959774017334	2.314670324325562	4.797763347625732	4.290368556976318	-2.314670324325562	-4.797763347625732	4.290368556976318	-1.433127522468566	13.42557525634766	-5.218062877655029	1.433127522468566	-13.42557525634766	-5.218062877655029	-1.48881375789643	-2.610852956771851	99.84077453613281	2.732050657272334	-10.50736713409424	74.48339080810547	-2.331742751309531e-18	-0.03808024898171425	-1.42778064841313e-34	1.159206230748091e-16	1.89312744140625	7.09809100018659e-33	-2.045546745490123e-18	-0.03340631350874901	-1.252536137185382e-34	1.100911965094674e-18	0.01797925680875778	6.741141570981074e-35	-5.626492348933054e-18	-0.09188759326934814	-3.445232922773969e-34	1.499064773491532e-17	0.244815856218338	9.179124382854782e-34	-3.594904060014168e-19	-0.005870923865586519	-2.201243875169088e-35	-3.594904060014168e-19	-0.005870923865586519	-2.201243875169088e-35	nan	nan	nan	1.64308774471283	9.53052806854248	-0.5750097632408141	nan	nan	nan	5.861465454101568	97.15115356445312	16.74910926818848	0.002649962203577146	-0.01900111138820648	0.2249166816473007	-0.0518475584685796	1.036490082740784	-9.480618476867676	-0.1068877279758453	0.8089723587036133	-0.2110670357942581	-0.72713577747345	-8.322627067565918	-3.100559234619141	-0.4249454438686369	1.949428796768188	-0.792633056640625	0.619835793972015	-7.476118087768555	-1.795679450035095	0.3166452944278715	-3.793150424957275	0.1353322565555573	0.3166452944278715	-3.793150424957275	0.1353322565555573	nan	nan	nan	-1166.83935546875	345.7045593261719	1744.253295898438	-1.567486394604747e-15	-5.580584049224854	24.43899917602539	-184.3595581054687	53.23268127441408	-1256.246337890625	-28.72528457641601	-3.443814277648924	-39.29709625244141	-153.6795196533203	101.4076385498047	-97.71550750732423	-139.9525909423828	-11.67142391204833	200.0686492919922	-434.3036499023438	68.37250518798831	724.8663940429688	-351.6580200195313	-116.4217147827148	944.8834228515625	351.6580200195312	116.4217147827148	944.8834228515625	
186	1.85	894.6400146484375	464.0891723632812	246.2004089355469	1206.451904296875	602.0209350585936	331.9107055664063	980.56201171875	481.4145202636718	-94.26303100585932	756.8400268554688	787.002197265625	227.8563690185547	1125.26611328125	86.59783172607415	202.0931396484376	1099.721923828125	279.0260925292968	197.9390258789063	1116.801147460938	81.28815460205071	8.189636230468818	932.979248046875	61.2685928344726	211.1811065673829	987.6192626953125	81.48303222656244	220.8966674804688	1332.921508789062	172.1115264892577	119.3674240112306	883.352294921875	79.70210266113276	-135.3063049316406	900.1543579101562	441.3977966308593	244.6997070312501	1189.361694335938	95.04093933105462	199.0638275146485	1180.846923828125	159.1837158203124	197.6791229248048	1186.5400390625	93.27104187011712	134.4293212890626	1125.265991210938	86.59783935546868	202.0931701660157	741.41650390625	786.45166015625	292.7816162109376	870.7284545898438	773.9959716796875	323.3950195312501	772.2634887695312	787.552734375	162.9310760498047	753.281982421875	919.3333740234375	296.7271118164063	610.9588012695312	459.6488952636718	347.7138671875001	933.9158935546875	344.3471679687499	394.3770751953126	658.2775268554688	453.4637756347656	4.937103271484415	725.9930419921875	785.9010620117188	357.7068481445313	519.928955078125	47.11741256713864	385.6186828613282	581.3675537109375	230.3795928955078	377.8298950195313	550.7613525390625	28.70226287841794	195.538070678711	339.1112060546875	106.2464981079101	350.5603332519531	397.5433959960938	99.8322830200195	347.8461608886719	703.4698486328125	-81.55718231201176	517.7244873046875	543.596923828125	13.07391357421872	-7.812530517578092	598.6134033203125	438.8346252441406	347.7215270996094	580.2014770507812	27.4076995849609	397.3048400878907	600.6810302734375	88.49508666992183	394.7085571289063	590.4789428710938	21.2692832946777	333.9446105957032	519.9288940429688	47.11741638183591	385.6187133789063	750.0979614257814	1257.651245117188	277.1413879394532	nan	nan	nan	nan	nan	nan	nan	nan	nan	642.1890869140626	1322.683715820312	279.3605651855469	622.8775634765626	1019.539428710938	275.0281677246094	754.5675659179689	1258.01953125	277.5114135742188	810.5396728515626	1095.891723632812	302.1981201171876	622.0040893554689	1230.105346679688	409.8214111328126	813.2301635742188	872.2657470703125	198.1920166015626	762.6937255859375	870.4618530273438	410.9256591796876	631.8027954101562	882.8392333984375	217.8899993896485	616.795654296875	891.8260498046875	299.9688720703126	881.898681640625	566.5697021484375	127.6332702636719	910.037109375	467.1938476562499	185.1898193359376	875.9616088867188	440.6971740722656	300.1975097656251	944.4494018554688	464.9519958496093	249.7425537109376	948.9266357421875	410.8120727539062	239.3800201416016	926.5446166992188	213.1587524414062	130.7191619873047	976.944091796875	81.30068969726557	184.4273986816407	989.2343139648438	85.29591369628901	265.8195495605469	929.0738525390625	25.35824012756342	213.6596069335938	1122.655639648438	56.91823196411126	206.526107788086	1102.348266601562	40.01126861572259	158.0445251464844	616.6126708984375	519.680419921875	456.9169616699219	602.071533203125	460.8105468749999	412.0929260253907	623.0576171875	451.1387634277343	279.3134765625001	667.9537963867188	415.1597595214843	354.0609436035157	623.2291259765625	363.8409423828124	358.2989807128907	433.8273315429688	233.3108367919922	425.0272521972656	383.6475524902344	108.0866546630859	381.6842956542969	419.675048828125	113.6125259399414	305.2741394042969	322.3534240722656	96.51857757568358	334.528076171875	507.9284973144531	32.25645446777341	374.5369567871094	470.0436401367188	16.39200592041013	413.9349670410157	766.7101440429688	581.212158203125	162.5260162353516	823.624267578125	556.3189697265625	148.6821289062501	809.4907836914062	497.2997741699218	176.4698944091797	959.4580688476562	289.4006958007812	247.8120117187501	979.4426879882812	247.1629333496093	198.7546997070313	980.2073364257812	198.9015960693359	244.9622497558594	908.3142700195312	427.0861511230468	175.4069213867188	873.4530639648438	405.6722412109374	291.9440917968751	604.061279296875	616.7787475585938	420.5213012695313	643.275146484375	557.82861328125	426.5684509277344	588.425048828125	517.571044921875	410.3722534179688	572.2496337890625	299.2874145507812	342.0199584960938	530.5177001953125	262.1026000976562	392.4635925292969	508.9029846191406	222.3022155761718	338.5709228515626	587.4143676757812	432.9380187988281	408.4814758300782	591.1209106445312	414.2834472656249	281.5576477050782	738.2049560546876	941.5582885742188	140.6218872070313	683.1151733398439	950.5422973632812	426.1528320312501	748.802734375	822.4677124023438	287.7888793945313	748.802734375	-4.585094359225647e-14	287.7888793945313	1.847996950149538	1.660777568817138	-28.53448867797852	4.123878479003905	-30.37317085266113	-10.81081199645996	3.109369993209839	13.5279712677002	6.489126682281494	-3.862750370490325e-16	0	6.308350086212158	3.239286184310913	4.696560382843018	13.94971370697021	3.135166883468627	-18.24043083190918	-10.93777656555176	3.227349519729616	14.48443222045898	-12.76230716705322	7.562287651453667e-16	0	-12.35015296936035	-3.353561878204346	8.18568229675293	9.934675216674805	3.353561878204345	-8.18568229675293	9.934675216674805	2.497197866439819	4.720953464508057	4.505248069763184	-2.49719786643982	-4.720953464508057	4.505248069763184	-1.693985939025878	13.26573848724365	-5.102608680725098	1.693985939025878	-13.26573848724365	-5.102608680725098	-1.227296948432929	-2.682784080505371	97.50418853759766	2.346477031707759	-10.44157600402832	71.89176940917969	-2.233076812316882e-18	-0.03646891191601753	-1.367365185227022e-34	1.436589940714077e-16	2.346129417419434	8.796576362913902e-33	-3.151334296149204e-18	-0.05146519467234612	-1.9296357294112e-34	-8.275541648646522e-18	-0.1351498514413834	-5.067307795612787e-34	-1.133829079334158e-17	-0.1851683408021927	-6.942700763933832e-34	2.278426327583242e-17	0.3720952570438385	1.395133754583938e-33	3.463870188780052e-18	0.05656929314136505	2.121008769675714e-34	3.463870188780052e-18	0.05656929314136505	2.121008769675714e-34	nan	nan	nan	1.685088753700257	8.91303825378418	-0.5214020609855651	nan	nan	nan	5.315005779266362	90.85666656494141	17.17725563049316	-0.001409352640621382	-0.02326438948512077	0.262598991394043	-0.05283213406801162	1.234778642654419	-8.852100372314453	-0.1950568109750747	0.8268968462944031	-0.1085026040673256	-0.811603903770447	-7.695034980773926	-3.008852481842041	-0.4332441687583922	1.992793917655945	-0.5242571830749512	0.5501973032951352	-6.890360832214355	-1.665980815887451	0.2732322216033933	-3.282331943511963	0.4766200184822083	0.2732322216033933	-3.282331943511963	0.4766200184822083	nan	nan	nan	-1089.3876953125	339.1247863769532	1645.305908203125	-9.102347535822536e-16	-4.806738376617432	34.37175750732422	-177.4927520751952	56.72640991210939	-1177.694946289062	-34.04835891723633	-2.002240419387815	-50.97704315185547	-111.0882034301758	93.68028259277344	-131.7492218017578	-161.6728668212891	-14.19661998748778	112.2818069458008	-376.4453735351563	59.14506912231447	731.3497314453125	-391.8291931152344	-155.4188842773437	818.028076171875	391.8291931152343	155.4188842773437	818.028076171875	
